<svg width="140" height="25" viewBox="0 0 140 25" fill="none" xmlns="http://www.w3.org/2000/svg">
<g clip-path="url(#clip0_38_158)">
<path d="M10.6904 6.85564L12.4568 6.11842C12.7018 6.01638 12.9683 5.97669 13.2324 6.0029C13.4965 6.02911 13.75 6.12041 13.9701 6.26863C14.1903 6.41684 14.3702 6.61733 14.4939 6.85216C14.6176 7.08699 14.6811 7.34881 14.6787 7.6142L14.5776 18.3725C14.5744 18.6304 14.4824 18.8794 14.3172 19.0775C14.152 19.2756 13.9236 19.4107 13.6705 19.4602C13.4173 19.5096 13.1549 19.4704 12.9272 19.349C12.6996 19.2276 12.5208 19.0316 12.4207 18.7938L9.5691 11.9611L8.11588 12.5154C7.72635 12.663 7.29471 12.6533 6.9122 12.4884C6.52968 12.3235 6.22625 12.0164 6.06604 11.6319L3.62524 5.78357C3.4613 5.39077 3.46012 4.94892 3.62196 4.55524C3.78379 4.16156 4.09539 3.8483 4.48819 3.68436L7.16204 2.56843C7.55485 2.40449 7.99669 2.4033 8.39037 2.56514C8.78405 2.72697 9.09732 3.03857 9.26126 3.43138L10.6904 6.85564Z" fill="url(#paint0_linear_38_158)"/>
</g>
<path d="M30.6 10.08C32.0667 10.24 33.24 10.5 34.12 10.86C35.0133 11.22 35.66 11.6933 36.06 12.28C36.46 12.8667 36.66 13.6 36.66 14.48C36.66 15.44 36.3467 16.28 35.72 17C35.1067 17.7067 34.2533 18.2533 33.16 18.64C32.0667 19.0133 30.82 19.2 29.42 19.2C27.86 19.2 26.54 19.0067 25.46 18.62C24.38 18.2333 23.5733 17.72 23.04 17.08C22.5067 16.4267 22.24 15.7133 22.24 14.94C22.24 14.8067 22.28 14.7 22.36 14.62C22.4533 14.54 22.5667 14.5 22.7 14.5H26.8C27.08 14.5 27.3067 14.5867 27.48 14.76C27.7067 14.9733 27.96 15.12 28.24 15.2C28.52 15.2667 28.9133 15.3 29.42 15.3C30.6867 15.3 31.32 15.1067 31.32 14.72C31.32 14.56 31.2333 14.4267 31.06 14.32C30.9 14.2 30.6067 14.1 30.18 14.02C29.7667 13.9267 29.1533 13.8333 28.34 13.74C26.5133 13.5267 25.1133 13.0733 24.14 12.38C23.1667 11.6733 22.68 10.68 22.68 9.4C22.68 8.49333 22.9533 7.69333 23.5 7C24.0467 6.30667 24.82 5.76667 25.82 5.38C26.8333 4.99333 28.0067 4.8 29.34 4.8C30.7267 4.8 31.94 5.02 32.98 5.46C34.02 5.88667 34.8133 6.42 35.36 7.06C35.9067 7.7 36.18 8.32667 36.18 8.94C36.18 9.07333 36.1333 9.18 36.04 9.26C35.96 9.34 35.8467 9.38 35.7 9.38H31.4C31.1733 9.38 30.9667 9.3 30.78 9.14C30.6333 9.00667 30.46 8.9 30.26 8.82C30.06 8.74 29.7533 8.7 29.34 8.7C28.4467 8.7 28 8.88667 28 9.26C28 9.46 28.1733 9.62 28.52 9.74C28.8667 9.84667 29.56 9.96 30.6 10.08ZM53.9322 13.22C53.9322 15.26 53.2522 16.7667 51.8922 17.74C50.5455 18.7133 48.7455 19.2 46.4922 19.2C44.2389 19.2 42.4322 18.7133 41.0722 17.74C39.7255 16.7667 39.0522 15.2467 39.0522 13.18V10.82C39.0522 9.46 39.3722 8.33333 40.0122 7.44C40.6655 6.53333 41.5522 5.86667 42.6722 5.44C43.7922 5.01333 45.0655 4.8 46.4922 4.8C47.9189 4.8 49.1855 5.01333 50.2922 5.44C51.4122 5.86667 52.2989 6.52667 52.9522 7.42C53.6055 8.31333 53.9322 9.43333 53.9322 10.78V13.22ZM44.4522 13.6C44.4522 14.1467 44.6322 14.5667 44.9922 14.86C45.3655 15.1533 45.8655 15.3 46.4922 15.3C47.1189 15.3 47.6122 15.1533 47.9722 14.86C48.3455 14.5533 48.5322 14.1267 48.5322 13.58V10.42C48.5322 9.87333 48.3455 9.45333 47.9722 9.16C47.6122 8.85333 47.1189 8.7 46.4922 8.7C45.8655 8.7 45.3655 8.84667 44.9922 9.14C44.6322 9.43333 44.4522 9.85333 44.4522 10.4V13.6ZM63.4844 19.2C61.2444 19.2 59.4644 18.7133 58.1444 17.74C56.8377 16.7667 56.1844 15.2467 56.1844 13.18V5.54C56.1844 5.39333 56.2377 5.26667 56.3444 5.16C56.451 5.05333 56.5777 5 56.7244 5H60.9044C61.051 5 61.1777 5.05333 61.2844 5.16C61.391 5.26667 61.4444 5.39333 61.4444 5.54V13.5C61.4444 14.0467 61.6244 14.4667 61.9844 14.76C62.3577 15.0533 62.8577 15.2 63.4844 15.2C64.111 15.2 64.6044 15.0533 64.9644 14.76C65.3377 14.4667 65.5244 14.0467 65.5244 13.5V5.54C65.5244 5.39333 65.5777 5.26667 65.6844 5.16C65.791 5.05333 65.9177 5 66.0644 5H70.2444C70.391 5 70.5177 5.05333 70.6244 5.16C70.731 5.26667 70.7844 5.39333 70.7844 5.54V13.18C70.7844 15.2467 70.1244 16.7667 68.8044 17.74C67.4977 18.7133 65.7244 19.2 63.4844 19.2ZM86.7366 5C86.8832 5 87.0099 5.05333 87.1166 5.16C87.2232 5.26667 87.2766 5.39333 87.2766 5.54V18.46C87.2766 18.6067 87.2232 18.7333 87.1166 18.84C87.0099 18.9467 86.8832 19 86.7366 19H83.5166C83.1966 19 82.9299 18.86 82.7166 18.58L78.3566 13.02V18.46C78.3566 18.6067 78.3032 18.7333 78.1966 18.84C78.0899 18.9467 77.9632 19 77.8166 19H74.0966C73.9499 19 73.8232 18.9467 73.7166 18.84C73.6099 18.7333 73.5566 18.6067 73.5566 18.46V5.54C73.5566 5.39333 73.6099 5.26667 73.7166 5.16C73.8232 5.05333 73.9499 5 74.0966 5H77.3366C77.6566 5 77.9166 5.13333 78.1166 5.4L82.4766 11.42V5.54C82.4766 5.39333 82.5299 5.26667 82.6366 5.16C82.7432 5.05333 82.8699 5 83.0166 5H86.7366ZM97.4088 5C99.6621 5 101.462 5.48667 102.809 6.46C104.169 7.43333 104.849 8.94 104.849 10.98V13.02C104.849 15.1 104.175 16.62 102.829 17.58C101.495 18.5267 99.6888 19 97.4088 19H91.0288C90.8821 19 90.7554 18.9467 90.6488 18.84C90.5421 18.7333 90.4888 18.6067 90.4888 18.46V5.54C90.4888 5.39333 90.5421 5.26667 90.6488 5.16C90.7554 5.05333 90.8821 5 91.0288 5H97.4088ZM97.5088 15.1C98.1354 15.1 98.6288 14.9533 98.9888 14.66C99.3621 14.3533 99.5488 13.9267 99.5488 13.38V10.62C99.5488 10.0733 99.3621 9.65333 98.9888 9.36C98.6288 9.05333 98.1354 8.9 97.5088 8.9H95.6888V15.1H97.5088ZM120.981 14.9C121.128 14.9 121.254 14.9533 121.361 15.06C121.468 15.1667 121.521 15.2933 121.521 15.44V18.46C121.521 18.6067 121.468 18.7333 121.361 18.84C121.254 18.9467 121.128 19 120.981 19H109.301C109.154 19 109.028 18.9467 108.921 18.84C108.814 18.7333 108.761 18.6067 108.761 18.46V5.54C108.761 5.39333 108.814 5.26667 108.921 5.16C109.028 5.05333 109.154 5 109.301 5H113.621C113.768 5 113.894 5.05333 114.001 5.16C114.108 5.26667 114.161 5.39333 114.161 5.54V14.9H120.981ZM138.773 5C138.893 5 138.993 5.04667 139.073 5.14C139.166 5.22 139.213 5.31333 139.213 5.42C139.213 5.5 139.193 5.58 139.153 5.66L134.113 14V18.46C134.113 18.6067 134.06 18.7333 133.953 18.84C133.846 18.9467 133.72 19 133.573 19H129.313C129.166 19 129.04 18.9467 128.933 18.84C128.826 18.7333 128.773 18.6067 128.773 18.46V14L123.753 5.66C123.713 5.58 123.693 5.50667 123.693 5.44C123.693 5.32 123.733 5.22 123.813 5.14C123.906 5.04667 124.013 5 124.133 5H128.353C128.726 5 129 5.15333 129.173 5.46L131.433 9.42L133.753 5.5C133.953 5.16667 134.233 5 134.593 5H138.773Z" fill="url(#paint1_linear_38_158)"/>
<defs>
<linearGradient id="paint0_linear_38_158" x1="-0.756855" y1="-1.87644" x2="12.6964" y2="-4.2306" gradientUnits="userSpaceOnUse">
<stop offset="0.255208" stop-color="#2CFFC0"/>
<stop offset="1" stop-color="#B4FF55"/>
</linearGradient>
<linearGradient id="paint1_linear_38_158" x1="7.47727" y1="-9.86842" x2="41.4481" y2="58.8828" gradientUnits="userSpaceOnUse">
<stop offset="0.255208" stop-color="#2CFFC0"/>
<stop offset="1" stop-color="#B4FF55"/>
</linearGradient>
<clipPath id="clip0_38_158">
<rect width="21" height="21" fill="white"/>
</clipPath>
</defs>
</svg>
